<svg width="250" height="250" viewBox="0 0 250 250" fill="none" xmlns="http://www.w3.org/2000/svg">
<path d="M156.25 74.9998C162.954 75.0081 169.539 73.2188 175.317 69.8182C181.095 66.4176 185.855 61.5301 189.103 55.6647C192.351 49.7993 193.966 43.1705 193.782 36.4685C193.598 29.7666 191.62 23.2366 188.055 17.5587C184.489 11.8807 179.467 7.26241 173.511 4.18469C167.554 1.10697 160.882 -0.317604 154.188 0.0593176C147.494 0.436239 141.024 2.60087 135.451 6.3278C129.877 10.0547 125.405 15.2076 122.5 21.2499C120 26.2499 123.25 31.9999 128 35.2499C141.574 44.1263 151.167 57.9318 154.75 73.7498C154.875 74.4998 155.5 74.9998 156.25 74.9998ZM205.5 190.875C207.375 196.25 212.25 200 218 200H231.25C241.625 200 250 191.625 250 181.25C249.991 158.557 241.751 136.639 226.81 119.56C211.869 102.481 191.24 91.4004 168.75 88.3748C161.875 87.3748 156.375 93.1248 155 99.8748C154.25 103.625 153.125 107.375 151.75 110.75C148.875 118 151.125 127 157.625 131.125C179.723 145.231 196.551 166.233 205.5 190.875ZM131.25 87.4998C131.25 92.4244 130.28 97.3007 128.395 101.85C126.511 106.4 123.749 110.534 120.267 114.016C116.784 117.498 112.65 120.261 108.101 122.145C103.551 124.03 98.6746 125 93.75 125C88.8254 125 83.9491 124.03 79.3994 122.145C74.8497 120.261 70.7157 117.498 67.2335 114.016C63.7513 110.534 60.9891 106.4 59.1045 101.85C57.22 97.3007 56.25 92.4244 56.25 87.4998C56.25 77.5542 60.2009 68.016 67.2335 60.9834C74.2661 53.9508 83.8044 49.9999 93.75 49.9999C103.696 49.9999 113.234 53.9508 120.267 60.9834C127.299 68.016 131.25 77.5542 131.25 87.4998ZM0 231.25C0 206.386 9.87721 182.54 27.4587 164.958C45.0403 147.377 68.886 137.5 93.75 137.5C118.614 137.5 142.46 147.377 160.041 164.958C177.623 182.54 187.5 206.386 187.5 231.25C187.5 241.625 179.125 250 168.75 250C168.165 250.011 167.595 249.818 167.138 249.452C166.681 249.087 166.367 248.573 166.25 248C163.75 236 159.25 224.625 155.25 216.25C154 213.375 150 214.375 150 217.5V243.75C150 245.407 149.342 246.997 148.169 248.169C146.997 249.341 145.408 250 143.75 250H43.75C42.0924 250 40.5027 249.341 39.3306 248.169C38.1585 246.997 37.5 245.407 37.5 243.75V217.5C37.5 214.375 33.625 213.375 32.25 216.25C28.25 224.625 23.875 236 21.25 248C21.1331 248.573 20.8189 249.087 20.3621 249.452C19.9053 249.818 19.3349 250.011 18.75 250C13.7772 250 9.00806 248.024 5.49175 244.508C1.97544 240.991 0 236.222 0 231.25Z" fill="white"/>
</svg>
