<svg width="2135" height="2278" viewBox="0 0 2135 2278" fill="none" xmlns="http://www.w3.org/2000/svg">
<path d="M1334.37 683.398C1391.63 683.474 1447.86 667.169 1497.2 636.183C1546.55 605.197 1587.21 560.662 1614.94 507.217C1642.68 453.771 1656.47 393.369 1654.9 332.301C1653.32 271.233 1636.43 211.732 1605.99 159.995C1575.54 108.257 1532.65 66.1751 1481.78 38.1309C1430.91 10.0867 1373.93 -2.89401 1316.77 0.540502C1259.6 3.97501 1204.34 23.6992 1156.75 57.6589C1109.15 91.6186 1070.96 138.572 1046.15 193.629C1024.8 239.189 1052.55 291.583 1093.12 321.197C1209.04 402.079 1290.96 527.875 1321.56 672.009C1322.63 678.842 1327.97 683.398 1334.37 683.398ZM1754.97 1739.25C1770.98 1788.23 1812.61 1822.4 1861.72 1822.4H1974.87C2063.48 1822.4 2135 1746.08 2135 1651.55C2134.92 1444.77 2064.56 1245.05 1936.96 1089.43C1809.36 933.802 1633.19 832.841 1441.12 805.271C1382.41 796.159 1335.44 848.553 1323.7 910.059C1317.29 944.229 1307.69 978.399 1295.94 1009.15C1271.39 1075.21 1290.61 1157.22 1346.12 1194.81C1534.84 1323.34 1678.55 1514.71 1754.97 1739.25ZM1120.87 797.298C1120.87 842.171 1112.59 886.604 1096.5 928.061C1080.4 969.518 1056.81 1007.19 1027.08 1038.92C997.338 1070.65 962.034 1095.82 923.179 1112.99C884.325 1130.16 842.681 1139 800.625 1139C758.569 1139 716.925 1130.16 678.071 1112.99C639.216 1095.82 603.912 1070.65 574.174 1038.92C544.436 1007.19 520.847 969.518 504.753 928.061C488.658 886.604 480.375 842.171 480.375 797.298C480.375 706.674 514.116 619.761 574.174 555.68C634.233 491.599 715.689 455.599 800.625 455.599C885.561 455.599 967.017 491.599 1027.08 555.68C1087.13 619.761 1120.87 706.674 1120.87 797.298ZM0 2107.15C0 1880.58 84.3513 1663.3 234.498 1503.1C384.644 1342.9 588.286 1252.9 800.625 1252.9C1012.96 1252.9 1216.61 1342.9 1366.75 1503.1C1516.9 1663.3 1601.25 1880.58 1601.25 2107.15C1601.25 2201.68 1529.73 2278 1441.12 2278C1436.13 2278.1 1431.26 2276.34 1427.36 2273.01C1423.46 2269.68 1420.77 2264.99 1419.77 2259.77C1398.42 2150.43 1359.99 2046.78 1325.83 1970.47C1315.16 1944.27 1281 1953.38 1281 1981.86V2221.05C1281 2236.15 1275.38 2250.63 1265.37 2261.31C1255.36 2272 1241.78 2278 1227.62 2278H373.625C359.469 2278 345.893 2272 335.883 2261.31C325.873 2250.63 320.25 2236.15 320.25 2221.05V1981.86C320.25 1953.38 287.157 1944.27 275.415 1970.47C241.255 2046.78 203.892 2150.43 181.475 2259.77C180.477 2264.99 177.794 2269.68 173.893 2273.01C169.992 2276.34 165.12 2278.1 160.125 2278C117.657 2278 76.9288 2260 46.8995 2227.95C16.8703 2195.91 0 2152.46 0 2107.15Z" fill="white"/>
</svg>
